ffmpeg started on 2016-12-08 at 04:19:07
Report written to "Output/x264/results/ffmpeg/crowd_run_2160p50slower9000k.log"
Command line:
Tools/ffmpeg/ffmpeg -benchmark -y -i Input/y4m/crowd_run_2160p50.y4m -c:v libx264 -preset slower -b:v 9000k -an Output/x264/encoded/crowd_run_2160p50slower9000k.mkv
ffmpeg version N-82227-gdb23fde Copyright (c) 2000-2016 the FFmpeg developers
  built with gcc 5.4.0 (Ubuntu 5.4.0-6ubuntu1~16.04.2) 20160609
  configuration: --prefix=/home/jaroslav/ffmpeg_build --pkg-config-flags=--static --extra-cflags=-I/home/jaroslav/ffmpeg_build/include --extra-ldflags=-L/home/jaroslav/ffmpeg_build/lib --bindir=/home/jaroslav/bin --enable-gpl --enable-libass --enable-libfdk-aac --enable-libfreetype --enable-libmp3lame --enable-libopus --enable-libtheora --enable-libvorbis --enable-libvpx --enable-libx264 --enable-libx265 --enable-nvenc --enable-libmfx --enable-libxvid --enable-libgsm --enable-libopencore-amrnb --enable-version3 --enable-nonfree
  libavutil      55. 35.100 / 55. 35.100
  libavcodec     57. 66.101 / 57. 66.101
  libavformat    57. 57.100 / 57. 57.100
  libavdevice    57.  2.100 / 57.  2.100
  libavfilter     6. 66.100 /  6. 66.100
  libswscale      4.  3.100 /  4.  3.100
  libswresample   2.  4.100 /  2.  4.100
  libpostproc    54.  2.100 / 54.  2.100
Input #0, yuv4mpegpipe, from 'Input/y4m/crowd_run_2160p50.y4m':
  Duration: 00:00:10.00, start: 0.000000, bitrate: 4976642 kb/s
    Stream #0:0: Video: rawvideo (I420 / 0x30323449), yuv420p(progressive), 3840x2160, SAR 1:1 DAR 16:9, 50 fps, 50 tbr, 50 tbn, 50 tbc
[libx264 @ 0x445e1c0] using SAR=1/1
[libx264 @ 0x445e1c0] DPB size (8 frames, 259200 mbs) > level limit (5 frames, 184320 mbs)
[libx264 @ 0x445e1c0] using cpu capabilities: MMX2 SSE2Fast SSSE3 SSE4.2 AVX FMA3 AVX2 LZCNT BMI2
[libx264 @ 0x445e1c0] profile High, level 5.2
[libx264 @ 0x445e1c0] 264 - core 148 - H.264/MPEG-4 AVC codec - Copyleft 2003-2016 - http://www.videolan.org/x264.html - options: cabac=1 ref=8 deblock=1:0:0 analyse=0x3:0x133 me=umh subme=9 psy=1 psy_rd=1.00:0.00 mixed_ref=1 me_range=16 chroma_me=1 trellis=2 8x8dct=1 cqm=0 deadzone=21,11 fast_pskip=1 chroma_qp_offset=-2 threads=6 lookahead_threads=1 sliced_threads=0 nr=0 decimate=1 interlaced=0 bluray_compat=0 constrained_intra=0 bframes=3 b_pyramid=2 b_adapt=2 b_bias=0 direct=3 weightb=1 open_gop=0 weightp=2 keyint=250 keyint_min=25 scenecut=40 intra_refresh=0 rc_lookahead=60 rc=abr mbtree=1 bitrate=9000 ratetol=1.0 qcomp=0.60 qpmin=0 qpmax=69 qpstep=4 ip_ratio=1.40 aq=1:1.00
Output #0, matroska, to 'Output/x264/encoded/crowd_run_2160p50slower9000k.mkv':
  Metadata:
    encoder         : Lavf57.57.100
    Stream #0:0: Video: h264 (libx264) (H264 / 0x34363248), yuv420p, 3840x2160 [SAR 1:1 DAR 16:9], q=-1--1, 9000 kb/s, 50 fps, 1k tbn, 50 tbc
    Metadata:
      encoder         : Lavc57.66.101 libx264
    Side data:
      cpb: bitrate max/min/avg: 0/0/9000000 buffer size: 0 vbv_delay: -1
Stream mapping:
  Stream #0:0 -> #0:0 (rawvideo (native) -> h264 (libx264))
Press [q] to stop, [?] for help
frame=   19 fps=0.0 q=0.0 size=       0kB time=00:00:00.00 bitrate=N/A speed=   0x    frame=   30 fps= 29 q=0.0 size=       0kB time=00:00:00.00 bitrate=N/A speed=   0x    frame=   38 fps= 24 q=0.0 size=       0kB time=00:00:00.00 bitrate=N/A speed=   0x    frame=   46 fps= 22 q=0.0 size=       0kB time=00:00:00.00 bitrate=N/A speed=   0x    frame=   54 fps= 20 q=0.0 size=       0kB time=00:00:00.00 bitrate=N/A speed=   0x    frame=   62 fps= 19 q=0.0 size=       0kB time=00:00:00.00 bitrate=N/A speed=   0x    frame=   67 fps= 10 q=0.0 size=       0kB time=00:00:00.00 bitrate=N/A speed=   0x    frame=   72 fps=9.5 q=35.0 size=       1kB time=-00:00:00.01 bitrate=N/A speed=N/A    frame=   73 fps=9.0 q=44.0 size=       1kB time=00:00:00.00 bitrate=5888.0kbits/s speed=0.000123x    frame=   76 fps=8.5 q=52.0 size=       1kB time=00:00:00.06 bitrate=  96.5kbits/s speed=0.00683x    frame=   80 fps=8.0 q=51.0 size=       1kB time=00:00:00.14 bitrate=  41.8kbits/s speed=0.0141x    frame=   83 fps=7.5 q=51.0 size=       1kB time=00:00:00.20 bitrate=  29.3kbits/s speed=0.0182x    frame=   86 fps=7.4 q=51.0 size=       1kB time=00:00:00.26 bitrate=  22.6kbits/s speed=0.0225x    frame=   87 fps=7.1 q=50.0 size=       1kB time=00:00:00.28 bitrate=  21.0kbits/s speed=0.0229x    frame=   90 fps=6.9 q=50.0 size=       1kB time=00:00:00.34 bitrate=  17.3kbits/s speed=0.0263x    frame=   92 fps=6.8 q=49.0 size=       1kB time=00:00:00.38 bitrate=  15.5kbits/s speed=0.0282x    frame=   94 fps=6.6 q=50.0 size=       1kB time=00:00:00.42 bitrate=  14.0kbits/s speed=0.0297x    frame=   95 fps=6.5 q=49.0 size=       1kB time=00:00:00.44 bitrate=  13.4kbits/s speed=0.0299x    frame=   99 fps=6.4 q=49.0 size=       1kB time=00:00:00.52 bitrate=  11.3kbits/s speed=0.0336x    frame=  102 fps=6.2 q=49.0 size=       1kB time=00:00:00.58 bitrate=  10.1kbits/s speed=0.0353x    frame=  104 fps=6.1 q=49.0 size=       1kB time=00:00:00.62 bitrate=   9.5kbits/s speed=0.0364x    frame=  107 fps=6.1 q=49.0 size=       1kB time=00:00:00.68 bitrate=   8.6kbits/s speed=0.0387x    frame=  109 fps=5.9 q=49.0 size=       1kB time=00:00:00.72 bitrate=   8.2kbits/s speed=0.0389x    frame=  111 fps=5.8 q=49.0 size=       1kB time=00:00:00.76 bitrate=   7.7kbits/s speed=0.0397x    frame=  114 fps=5.8 q=49.0 size=       1kB time=00:00:00.82 bitrate=   7.2kbits/s speed=0.0416x    frame=  115 fps=5.7 q=49.0 size=       1kB time=00:00:00.84 bitrate=   7.0kbits/s speed=0.0415x    frame=  118 fps=5.6 q=48.0 size=       1kB time=00:00:00.90 bitrate=   6.5kbits/s speed=0.0431x    frame=  121 fps=5.5 q=48.0 size=       1kB time=00:00:00.96 bitrate=   6.1kbits/s speed=0.0434x    frame=  126 fps=5.5 q=48.0 size=       1kB time=00:00:01.06 bitrate=   5.5kbits/s speed=0.0462x    frame=  127 fps=5.3 q=48.0 size=       1kB time=00:00:01.08 bitrate=   5.4kbits/s speed=0.0454x    frame=  131 fps=5.3 q=48.0 size=       1kB time=00:00:01.16 bitrate=   5.1kbits/s speed=0.0471x    frame=  133 fps=5.3 q=48.0 size=       1kB time=00:00:01.20 bitrate=   4.9kbits/s speed=0.0477x    frame=  134 fps=5.2 q=48.0 size=       1kB time=00:00:01.22 bitrate=   4.8kbits/s speed=0.0473x    frame=  136 fps=5.2 q=48.0 size=       1kB time=00:00:01.26 bitrate=   4.7kbits/s speed=0.0478x    frame=  139 fps=5.2 q=48.0 size=       1kB time=00:00:01.32 bitrate=   4.5kbits/s speed=0.0491x    frame=  141 fps=5.1 q=48.0 size=       1kB time=00:00:01.36 bitrate=   4.3kbits/s speed=0.0495x    frame=  142 fps=5.0 q=48.0 size=       1kB time=00:00:01.38 bitrate=   4.3kbits/s speed=0.0491x    frame=  145 fps=5.1 q=48.0 size=       1kB time=00:00:01.44 bitrate=   4.1kbits/s speed=0.0503x    frame=  146 fps=5.0 q=48.0 size=       1kB time=00:00:01.46 bitrate=   4.0kbits/s speed=0.0499x    frame=  148 fps=5.0 q=47.0 size=       1kB time=00:00:01.50 bitrate=   3.9kbits/s speed=0.0503x    frame=  150 fps=4.9 q=48.0 size=       1kB time=00:00:01.54 bitrate=   3.8kbits/s speed=0.0505x    frame=  152 fps=4.9 q=47.0 size=       1kB time=00:00:01.58 bitrate=   3.7kbits/s speed=0.0509x    frame=  154 fps=4.8 q=47.0 size=       1kB time=00:00:01.62 bitrate=   3.6kbits/s speed=0.051x    frame=  156 fps=4.8 q=47.0 size=       1kB time=00:00:01.66 bitrate=   3.5kbits/s speed=0.0514x    frame=  159 fps=4.8 q=47.0 size=       1kB time=00:00:01.72 bitrate=   3.4kbits/s speed=0.0519x    frame=  162 fps=4.7 q=47.0 size=       1kB time=00:00:01.78 bitrate=   3.3kbits/s speed=0.0522x    frame=  164 fps=4.7 q=47.0 size=       1kB time=00:00:01.82 bitrate=   3.2kbits/s speed=0.0525x    frame=  166 fps=4.7 q=47.0 size=       1kB time=00:00:01.86 bitrate=   3.2kbits/s speed=0.0525x    frame=  168 fps=4.7 q=47.0 size=       1kB time=00:00:01.90 bitrate=   3.1kbits/s speed=0.0527x    frame=  172 fps=4.6 q=47.0 size=       1kB time=00:00:01.98 bitrate=   3.0kbits/s speed=0.0533x    frame=  174 fps=4.6 q=47.0 size=       1kB time=00:00:02.02 bitrate=   2.9kbits/s speed=0.0536x    frame=  176 fps=4.6 q=47.0 size=       1kB time=00:00:02.06 bitrate=   2.9kbits/s speed=0.0539x    frame=  178 fps=4.5 q=47.0 size=       1kB time=00:00:02.10 bitrate=   2.8kbits/s speed=0.0536x    frame=  182 fps=4.6 q=47.0 size=       1kB time=00:00:02.18 bitrate=   2.7kbits/s speed=0.0547x    frame=  184 fps=4.5 q=47.0 size=       1kB time=00:00:02.22 bitrate=   2.7kbits/s speed=0.0543x    frame=  188 fps=4.5 q=47.0 size=       1kB time=00:00:02.30 bitrate=   2.6kbits/s speed=0.0547x    frame=  191 fps=4.4 q=47.0 size=       1kB time=00:00:02.36 bitrate=   2.5kbits/s speed=0.055x    frame=  193 fps=4.4 q=47.0 size=       1kB time=00:00:02.40 bitrate=   2.5kbits/s speed=0.0552x    frame=  196 fps=4.4 q=47.0 size=       1kB time=00:00:02.46 bitrate=   2.4kbits/s speed=0.0553x    frame=  199 fps=4.4 q=47.0 size=       1kB time=00:00:02.52 bitrate=   2.3kbits/s speed=0.0557x    frame=  201 fps=4.4 q=47.0 size=       1kB time=00:00:02.56 bitrate=   2.3kbits/s speed=0.0558x    frame=  203 fps=4.4 q=47.0 size=       1kB time=00:00:02.60 bitrate=   2.3kbits/s speed=0.0558x    frame=  206 fps=4.3 q=47.0 size=       1kB time=00:00:02.66 bitrate=   2.2kbits/s speed=0.0558x    frame=  208 fps=4.3 q=47.0 size=       1kB time=00:00:02.70 bitrate=   2.2kbits/s speed=0.0559x    frame=  212 fps=4.3 q=47.0 size=       1kB time=00:00:02.78 bitrate=   2.1kbits/s speed=0.0565x    frame=  214 fps=4.3 q=47.0 size=       1kB time=00:00:02.82 bitrate=   2.1kbits/s speed=0.0565x    frame=  216 fps=4.3 q=47.0 size=       1kB time=00:00:02.86 bitrate=   2.1kbits/s speed=0.0567x    frame=  218 fps=4.2 q=47.0 size=       1kB time=00:00:02.90 bitrate=   2.0kbits/s speed=0.0564x    frame=  222 fps=4.2 q=47.0 size=       1kB time=00:00:02.98 bitrate=   2.0kbits/s speed=0.0569x    frame=  225 fps=4.2 q=47.0 size=       1kB time=00:00:03.04 bitrate=   1.9kbits/s speed=0.0571x    frame=  227 fps=4.2 q=47.0 size=       1kB time=00:00:03.08 bitrate=   1.9kbits/s speed=0.0571x    frame=  229 fps=4.2 q=47.0 size=       1kB time=00:00:03.12 bitrate=   1.9kbits/s speed=0.057x    frame=  232 fps=4.2 q=47.0 size=       1kB time=00:00:03.18 bitrate=   1.9kbits/s speed=0.0575x    frame=  233 fps=4.2 q=47.0 size=       1kB time=00:00:03.20 bitrate=   1.8kbits/s speed=0.0573x    frame=  236 fps=4.2 q=47.0 size=       1kB time=00:00:03.26 bitrate=   1.8kbits/s speed=0.0574x    frame=  238 fps=4.2 q=46.0 size=       1kB time=00:00:03.30 bitrate=   1.8kbits/s speed=0.0576x    frame=  240 fps=4.1 q=46.0 size=       1kB time=00:00:03.34 bitrate=   1.8kbits/s speed=0.0577x    frame=  242 fps=4.1 q=46.0 size=       1kB time=00:00:03.38 bitrate=   1.7kbits/s speed=0.0578x    frame=  244 fps=4.1 q=46.0 size=       1kB time=00:00:03.42 bitrate=   1.7kbits/s speed=0.0576x    frame=  246 fps=4.1 q=46.0 size=       1kB time=00:00:03.46 bitrate=   1.7kbits/s speed=0.0576x    frame=  250 fps=4.1 q=46.0 size=       1kB time=00:00:03.54 bitrate=   1.7kbits/s speed=0.0583x    frame=  251 fps=4.1 q=46.0 size=       1kB time=00:00:03.56 bitrate=   1.7kbits/s speed=0.0579x    frame=  252 fps=4.1 q=46.0 size=       1kB time=00:00:03.58 bitrate=   1.6kbits/s speed=0.0577x    frame=  255 fps=4.1 q=46.0 size=       1kB time=00:00:03.64 bitrate=   1.6kbits/s speed=0.0582x    frame=  257 fps=4.1 q=46.0 size=       1kB time=00:00:03.68 bitrate=   1.6kbits/s speed=0.0581x    frame=  260 fps=4.1 q=46.0 size=       1kB time=00:00:03.74 bitrate=   1.6kbits/s speed=0.0583x    frame=  262 fps=4.0 q=46.0 size=       1kB time=00:00:03.78 bitrate=   1.6kbits/s speed=0.0582x    frame=  263 fps=4.0 q=46.0 size=       1kB time=00:00:03.80 bitrate=   1.5kbits/s speed=0.058x    frame=  267 fps=4.0 q=46.0 size=       1kB time=00:00:03.88 bitrate=   1.5kbits/s speed=0.0583x    frame=  270 fps=4.0 q=46.0 size=       1kB time=00:00:03.94 bitrate=   1.5kbits/s speed=0.0583x    frame=  272 fps=4.0 q=46.0 size=       1kB time=00:00:03.98 bitrate=   1.5kbits/s speed=0.0583x    frame=  276 fps=4.0 q=46.0 size=       1kB time=00:00:04.06 bitrate=   1.4kbits/s speed=0.0589x    frame=  277 fps=4.0 q=46.0 size=       1kB time=00:00:04.08 bitrate=   1.4kbits/s speed=0.0584x    frame=  279 fps=4.0 q=46.0 size=       1kB time=00:00:04.12 bitrate=   1.4kbits/s speed=0.0585x    frame=  283 fps=4.0 q=46.0 size=       1kB time=00:00:04.20 bitrate=   1.4kbits/s speed=0.059x    frame=  285 fps=3.9 q=46.0 size=       1kB time=00:00:04.24 bitrate=   1.4kbits/s speed=0.0585x    frame=  287 fps=3.9 q=46.0 size=       1kB time=00:00:04.28 bitrate=   1.4kbits/s speed=0.0586x    frame=  290 fps=3.9 q=46.0 size=       1kB time=00:00:04.34 bitrate=   1.4kbits/s speed=0.0589x    frame=  292 fps=3.9 q=46.0 size=       1kB time=00:00:04.38 bitrate=   1.3kbits/s speed=0.059x    frame=  293 fps=3.9 q=46.0 size=       1kB time=00:00:04.40 bitrate=   1.3kbits/s speed=0.0587x    frame=  295 fps=3.9 q=46.0 size=       1kB time=00:00:04.44 bitrate=   1.3kbits/s speed=0.0587x    frame=  299 fps=3.9 q=46.0 size=    5131kB time=00:00:04.52 bitrate=9297.0kbits/s speed=0.0591x    frame=  300 fps=3.9 q=46.0 size=    5131kB time=00:00:04.54 bitrate=9256.0kbits/s speed=0.0587x    frame=  302 fps=3.9 q=46.0 size=    5131kB time=00:00:04.58 bitrate=9175.2kbits/s speed=0.0588x    frame=  305 fps=3.9 q=46.0 size=    5131kB time=00:00:04.64 bitrate=9056.6kbits/s speed=0.0589x    frame=  308 fps=3.9 q=46.0 size=    5131kB time=00:00:04.70 bitrate=8941.0kbits/s speed=0.0588x    frame=  311 fps=3.9 q=46.0 size=    5131kB time=00:00:04.76 bitrate=8828.3kbits/s speed=0.0592x    frame=  312 fps=3.8 q=46.0 size=    5131kB time=00:00:04.78 bitrate=8791.4kbits/s speed=0.0588x    frame=  314 fps=3.8 q=46.0 size=    5131kB time=00:00:04.82 bitrate=8718.5kbits/s speed=0.0588x    frame=  318 fps=3.9 q=47.0 size=    5131kB time=00:00:04.90 bitrate=8576.1kbits/s speed=0.0594x    frame=  319 fps=3.8 q=47.0 size=    5131kB time=00:00:04.92 bitrate=8541.3kbits/s speed=0.059x    frame=  323 fps=3.8 q=47.0 size=    5601kB time=00:00:05.00 bitrate=9174.4kbits/s speed=0.0596x    frame=  328 fps=3.9 q=47.0 size=    5601kB time=00:00:05.10 bitrate=8994.5kbits/s speed=0.06x    frame=  330 fps=3.9 q=47.0 size=    5601kB time=00:00:05.14 bitrate=8924.5kbits/s speed=0.0601x    frame=  333 fps=3.9 q=47.0 size=    5601kB time=00:00:05.20 bitrate=8821.6kbits/s speed=0.0604x    frame=  334 fps=3.9 q=47.0 size=    5601kB time=00:00:05.22 bitrate=8787.8kbits/s speed=0.0602x    frame=  337 fps=3.9 q=47.0 size=    5601kB time=00:00:05.28 bitrate=8687.9kbits/s speed=0.0605x    frame=  338 fps=3.8 q=47.0 size=    5601kB time=00:00:05.30 bitrate=8655.1kbits/s speed=0.0603x    frame=  340 fps=3.8 q=47.0 size=    5601kB time=00:00:05.34 bitrate=8590.3kbits/s speed=0.0603x    frame=  341 fps=3.8 q=47.0 size=    5601kB time=00:00:05.36 bitrate=8558.3kbits/s speed=0.0601x    frame=  345 fps=3.8 q=47.0 size=    5601kB time=00:00:05.44 bitrate=8432.4kbits/s speed=0.0604x    frame=  347 fps=3.8 q=47.0 size=    5601kB time=00:00:05.48 bitrate=8370.9kbits/s speed=0.0605x    frame=  348 fps=3.8 q=47.0 size=    5601kB time=00:00:05.50 bitrate=8340.5kbits/s speed=0.0603x    frame=  350 fps=3.8 q=47.0 size=    5601kB time=00:00:05.54 bitrate=8280.3kbits/s speed=0.0603x    frame=  353 fps=3.8 q=47.0 size=    5601kB time=00:00:05.60 bitrate=8191.6kbits/s speed=0.0605x    frame=  356 fps=3.8 q=47.0 size=    5601kB time=00:00:05.66 bitrate=8104.7kbits/s speed=0.0604x    frame=  357 fps=3.8 q=47.0 size=    5601kB time=00:00:05.68 bitrate=8076.2kbits/s speed=0.0603x    frame=  360 fps=3.8 q=47.0 size=    5601kB time=00:00:05.74 bitrate=7991.8kbits/s speed=0.0605x    frame=  363 fps=3.8 q=47.0 size=    5601kB time=00:00:05.80 bitrate=7909.1kbits/s speed=0.0607x    frame=  364 fps=3.8 q=47.0 size=    5601kB time=00:00:05.82 bitrate=7882.0kbits/s speed=0.0604x    frame=  366 fps=3.8 q=47.0 size=    5601kB time=00:00:05.86 bitrate=7828.2kbits/s speed=0.0604x    frame=  369 fps=3.8 q=47.0 size=    5601kB time=00:00:05.92 bitrate=7748.8kbits/s speed=0.0605x    frame=  372 fps=3.8 q=47.0 size=    5601kB time=00:00:05.98 bitrate=7671.1kbits/s speed=0.0604x    frame=  374 fps=3.8 q=47.0 size=    5601kB time=00:00:06.02 bitrate=7620.2kbits/s speed=0.0604x    frame=  378 fps=3.8 q=47.0 size=    5601kB time=00:00:06.10 bitrate=7520.2kbits/s speed=0.0608x    frame=  379 fps=3.8 q=47.0 size=    5601kB time=00:00:06.12 bitrate=7495.7kbits/s speed=0.0606x    frame=  380 fps=3.7 q=46.0 size=    5601kB time=00:00:06.14 bitrate=7471.2kbits/s speed=0.0604x    frame=  385 fps=3.7 q=46.0 size=    5601kB time=00:00:06.24 bitrate=7351.5kbits/s speed=0.0606x    frame=  386 fps=3.7 q=46.0 size=    5601kB time=00:00:06.26 bitrate=7328.1kbits/s speed=0.0605x    frame=  389 fps=3.7 q=46.0 size=    5601kB time=00:00:06.32 bitrate=7258.5kbits/s speed=0.0606x    frame=  392 fps=3.7 q=46.0 size=    5601kB time=00:00:06.38 bitrate=7190.2kbits/s speed=0.0608x    frame=  393 fps=3.7 q=46.0 size=    5601kB time=00:00:06.40 bitrate=7167.8kbits/s speed=0.0606x    frame=  395 fps=3.7 q=46.0 size=    5601kB time=00:00:06.44 bitrate=7123.3kbits/s speed=0.0606x    frame=  399 fps=3.7 q=46.0 size=    5601kB time=00:00:06.52 bitrate=7035.9kbits/s speed=0.0607x    frame=  402 fps=3.7 q=46.0 size=    5601kB time=00:00:06.58 bitrate=6971.7kbits/s speed=0.0606x    frame=  404 fps=3.7 q=46.0 size=    5601kB time=00:00:06.62 bitrate=6929.6kbits/s speed=0.0607x    frame=  407 fps=3.7 q=46.0 size=    5601kB time=00:00:06.68 bitrate=6867.4kbits/s speed=0.0606x    frame=  410 fps=3.7 q=46.0 size=    5601kB time=00:00:06.74 bitrate=6806.3kbits/s speed=0.0608x    frame=  411 fps=3.7 q=46.0 size=    5601kB time=00:00:06.76 bitrate=6786.1kbits/s speed=0.0607x    frame=  414 fps=3.7 q=46.0 size=    5601kB time=00:00:06.82 bitrate=6726.4kbits/s speed=0.0607x    frame=  416 fps=3.7 q=46.0 size=    5601kB time=00:00:06.86 bitrate=6687.2kbits/s speed=0.0608x    frame=  418 fps=3.7 q=46.0 size=    5601kB time=00:00:06.90 bitrate=6648.4kbits/s speed=0.0607x    frame=  420 fps=3.7 q=46.0 size=    5601kB time=00:00:06.94 bitrate=6610.1kbits/s speed=0.0608x    frame=  423 fps=3.7 q=46.0 size=    5601kB time=00:00:07.00 bitrate=6553.5kbits/s speed=0.0609x    frame=  424 fps=3.7 q=46.0 size=    5601kB time=00:00:07.02 bitrate=6534.8kbits/s speed=0.0606x    frame=  429 fps=3.7 q=46.0 size=    5601kB time=00:00:07.12 bitrate=6443.0kbits/s speed=0.0611x    frame=  430 fps=3.7 q=46.0 size=    5601kB time=00:00:07.14 bitrate=6425.0kbits/s speed=0.0608x    frame=  432 fps=3.7 q=46.0 size=    5601kB time=00:00:07.18 bitrate=6389.2kbits/s speed=0.0608x    frame=  435 fps=3.7 q=46.0 size=    5601kB time=00:00:07.24 bitrate=6336.3kbits/s speed=0.0609x    frame=  436 fps=3.7 q=46.0 size=    5601kB time=00:00:07.26 bitrate=6318.8kbits/s speed=0.0609x    frame=  439 fps=3.7 q=46.0 size=    5601kB time=00:00:07.32 bitrate=6267.0kbits/s speed=0.061x    frame=  441 fps=3.7 q=46.0 size=    5601kB time=00:00:07.36 bitrate=6233.0kbits/s speed=0.061x    frame=  443 fps=3.6 q=46.0 size=    5601kB time=00:00:07.40 bitrate=6199.3kbits/s speed=0.0608x    frame=  446 fps=3.6 q=46.0 size=    5601kB time=00:00:07.46 bitrate=6149.4kbits/s speed=0.0609x    frame=  448 fps=3.6 q=46.0 size=    5601kB time=00:00:07.50 bitrate=6116.6kbits/s speed=0.061x    frame=  450 fps=3.6 q=46.0 size=    5601kB time=00:00:07.54 bitrate=6084.2kbits/s speed=0.0608x    frame=  452 fps=3.6 q=46.0 size=    5601kB time=00:00:07.58 bitrate=6052.1kbits/s speed=0.0608x    frame=  454 fps=3.6 q=46.0 size=    5601kB time=00:00:07.62 bitrate=6020.3kbits/s speed=0.0609x    frame=  456 fps=3.6 q=46.0 size=    5601kB time=00:00:07.66 bitrate=5988.9kbits/s speed=0.061x    frame=  457 fps=3.6 q=46.0 size=    5601kB time=00:00:07.68 bitrate=5973.3kbits/s speed=0.0608x    frame=  459 fps=3.6 q=46.0 size=    5601kB time=00:00:07.72 bitrate=5942.4kbits/s speed=0.0609x    frame=  462 fps=3.6 q=46.0 size=    5601kB time=00:00:07.78 bitrate=5896.5kbits/s speed=0.061x    frame=  463 fps=3.6 q=46.0 size=    5601kB time=00:00:07.80 bitrate=5881.4kbits/s speed=0.0608x    frame=  466 fps=3.6 q=46.0 size=    5601kB time=00:00:07.86 bitrate=5836.5kbits/s speed=0.061x    frame=  467 fps=3.6 q=46.0 size=    5601kB time=00:00:07.88 bitrate=5821.7kbits/s speed=0.0609x    frame=  470 fps=3.6 q=46.0 size=    5601kB time=00:00:07.94 bitrate=5777.7kbits/s speed=0.0609x    frame=  471 fps=3.6 q=46.0 size=    5601kB time=00:00:07.96 bitrate=5763.2kbits/s speed=0.0608x    frame=  474 fps=3.6 q=46.0 size=    5601kB time=00:00:08.02 bitrate=5720.1kbits/s speed=0.0609x    frame=  477 fps=3.6 q=46.0 size=    5601kB time=00:00:08.08 bitrate=5677.6kbits/s speed=0.0611x    frame=  478 fps=3.6 q=46.0 size=    5601kB time=00:00:08.10 bitrate=5663.6kbits/s speed=0.0609x    frame=  480 fps=3.6 q=46.0 size=    5601kB time=00:00:08.14 bitrate=5635.8kbits/s speed=0.0608x    frame=  484 fps=3.6 q=46.0 size=    5601kB time=00:00:08.22 bitrate=5580.9kbits/s speed=0.0612x    frame=  485 fps=3.6 q=46.0 size=    5601kB time=00:00:08.24 bitrate=5567.4kbits/s speed=0.0609x    frame=  487 fps=3.6 q=46.0 size=    5601kB time=00:00:08.28 bitrate=5540.5kbits/s speed=0.0609x    frame=  489 fps=3.6 q=46.0 size=    5601kB time=00:00:08.32 bitrate=5513.9kbits/s speed=0.061x    frame=  492 fps=3.6 q=46.0 size=    5601kB time=00:00:08.38 bitrate=5474.4kbits/s speed=0.061x    frame=  494 fps=3.6 q=46.0 size=    5601kB time=00:00:08.42 bitrate=5448.4kbits/s speed=0.061x    frame=  496 fps=3.6 q=46.0 size=    5601kB time=00:00:08.46 bitrate=5422.6kbits/s speed=0.0609x    frame=  499 fps=3.6 q=46.0 size=    5601kB time=00:00:08.52 bitrate=5384.5kbits/s speed=0.0611x    frame=  500 fps=3.6 q=46.0 size=    5601kB time=00:00:08.54 bitrate=5371.8kbits/s speed=0.061x    frame=  500 fps=3.1 q=-1.0 Lsize=   10998kB time=00:00:09.94 bitrate=9062.8kbits/s speed=0.0617x    
video:10993kB audio:0kB subtitle:0kB other streams:0kB global headers:0kB muxing overhead: 0.040792%
bench: utime=609.028s
bench: maxrss=2509864kB
[libx264 @ 0x445e1c0] frame I:2     Avg QP:36.20  size:318456
[libx264 @ 0x445e1c0] frame P:134   Avg QP:45.58  size: 42471
[libx264 @ 0x445e1c0] frame B:364   Avg QP:48.38  size: 13540
[libx264 @ 0x445e1c0] consecutive B-frames:  0.4%  2.8% 14.4% 82.4%
[libx264 @ 0x445e1c0] mb I  I16..4: 24.2% 70.1%  5.7%
[libx264 @ 0x445e1c0] mb P  I16..4:  2.5%  3.5%  0.0%  P16..4: 33.7%  2.4%  4.4%  0.0%  0.0%    skip:53.5%
[libx264 @ 0x445e1c0] mb B  I16..4:  0.0%  0.0%  0.0%  B16..8: 37.7%  0.8%  0.0%  direct: 0.1%  skip:61.3%  L0:41.8% L1:58.0% BI: 0.2%
[libx264 @ 0x445e1c0] final ratefactor: 38.33
[libx264 @ 0x445e1c0] 8x8 transform intra:61.0% inter:90.7%
[libx264 @ 0x445e1c0] direct mvs  spatial:99.2% temporal:0.8%
[libx264 @ 0x445e1c0] coded y,uvDC,uvAC intra: 23.5% 43.6% 12.8% inter: 1.7% 4.1% 0.0%
[libx264 @ 0x445e1c0] i16 v,h,dc,p: 37% 22%  6% 35%
[libx264 @ 0x445e1c0] i8 v,h,dc,ddl,ddr,vr,hd,vl,hu:  8%  4% 12% 12% 15% 14% 14% 12% 10%
[libx264 @ 0x445e1c0] i4 v,h,dc,ddl,ddr,vr,hd,vl,hu:  6%  4%  1% 13% 17% 16% 16% 13% 15%
[libx264 @ 0x445e1c0] i8c dc,h,v,p: 58% 16% 15% 10%
[libx264 @ 0x445e1c0] Weighted P-Frames: Y:0.7% UV:0.0%
[libx264 @ 0x445e1c0] ref P L0: 63.5%  3.4% 15.6%  4.5%  4.0%  3.3%  3.5%  2.1%  0.0%
[libx264 @ 0x445e1c0] ref B L0: 95.0%  2.9%  1.1%  0.4%  0.3%  0.2%  0.2%
[libx264 @ 0x445e1c0] ref B L1: 98.9%  1.1%
[libx264 @ 0x445e1c0] kb/s:9005.12
